<mxfile host="app.diagrams.net" modified="2023-12-11T21:50:37.043Z" agent="Mozilla/5.0 (Windows NT 10.0; Win64; x64) AppleWebKit/537.36 (KHTML, like Gecko) Chrome/120.0.0.0 Safari/537.36" etag="RO1RRi8IsVfO6zj2CDy-" version="22.1.7" type="device">
  <diagram name="Page-1" id="YCVFmDb82YVpyDgioqFn">
    <mxGraphModel dx="1194" dy="708" grid="1" gridSize="10" guides="1" tooltips="1" connect="1" arrows="1" fold="1" page="1" pageScale="1" pageWidth="850" pageHeight="1100" math="0" shadow="0">
      <root>
        <mxCell id="0" />
        <mxCell id="1" parent="0" />
        <mxCell id="SQTo0PQy_0gCn9-5qwTW-1" value="" style="rounded=0;whiteSpace=wrap;html=1;fillColor=#f5f5f5;strokeColor=#666666;fontColor=#333333;" vertex="1" parent="1">
          <mxGeometry x="80" y="80" width="210" height="100" as="geometry" />
        </mxCell>
        <mxCell id="SQTo0PQy_0gCn9-5qwTW-2" value="Main thread, listening for new connections on TCP socket" style="text;html=1;strokeColor=none;fillColor=none;align=center;verticalAlign=middle;whiteSpace=wrap;rounded=0;" vertex="1" parent="1">
          <mxGeometry x="80" y="80" width="210" height="60" as="geometry" />
        </mxCell>
        <mxCell id="SQTo0PQy_0gCn9-5qwTW-3" value="" style="rounded=0;whiteSpace=wrap;html=1;" vertex="1" parent="1">
          <mxGeometry x="574" y="80" width="230" height="80" as="geometry" />
        </mxCell>
        <mxCell id="SQTo0PQy_0gCn9-5qwTW-4" value="Only broadcasting task for&amp;nbsp;&lt;br&gt;- broadcasting&lt;br&gt;- handling disconnect&lt;br&gt;- client registration&lt;br&gt;- communication with DB" style="text;html=1;strokeColor=#666666;fillColor=#f5f5f5;align=center;verticalAlign=middle;whiteSpace=wrap;rounded=0;fontColor=#333333;" vertex="1" parent="1">
          <mxGeometry x="574" y="80" width="230" height="80" as="geometry" />
        </mxCell>
        <mxCell id="SQTo0PQy_0gCn9-5qwTW-5" value="client 1&amp;nbsp;&lt;br&gt;message task" style="rounded=0;whiteSpace=wrap;html=1;fillColor=#f5f5f5;strokeColor=#666666;fontColor=#333333;" vertex="1" parent="1">
          <mxGeometry x="390" y="311" width="120" height="60" as="geometry" />
        </mxCell>
        <mxCell id="SQTo0PQy_0gCn9-5qwTW-6" value="client 2&lt;br&gt;message task" style="rounded=0;whiteSpace=wrap;html=1;fillColor=#f5f5f5;strokeColor=#666666;fontColor=#333333;" vertex="1" parent="1">
          <mxGeometry x="555" y="311" width="120" height="60" as="geometry" />
        </mxCell>
        <mxCell id="SQTo0PQy_0gCn9-5qwTW-7" value="client 1" style="shape=umlActor;verticalLabelPosition=bottom;verticalAlign=top;html=1;outlineConnect=0;" vertex="1" parent="1">
          <mxGeometry x="435" y="444" width="30" height="60" as="geometry" />
        </mxCell>
        <mxCell id="SQTo0PQy_0gCn9-5qwTW-8" value="client 2" style="shape=umlActor;verticalLabelPosition=bottom;verticalAlign=top;html=1;outlineConnect=0;" vertex="1" parent="1">
          <mxGeometry x="600" y="444" width="30" height="60" as="geometry" />
        </mxCell>
        <mxCell id="SQTo0PQy_0gCn9-5qwTW-10" value="" style="endArrow=classic;html=1;rounded=0;entryX=0.5;entryY=1;entryDx=0;entryDy=0;" edge="1" parent="1" target="SQTo0PQy_0gCn9-5qwTW-5">
          <mxGeometry width="50" height="50" relative="1" as="geometry">
            <mxPoint x="450" y="441" as="sourcePoint" />
            <mxPoint x="640" y="381" as="targetPoint" />
          </mxGeometry>
        </mxCell>
        <mxCell id="SQTo0PQy_0gCn9-5qwTW-11" value="message: text(&quot;hello&quot;)" style="edgeLabel;html=1;align=center;verticalAlign=middle;resizable=0;points=[];" vertex="1" connectable="0" parent="SQTo0PQy_0gCn9-5qwTW-10">
          <mxGeometry y="-1" relative="1" as="geometry">
            <mxPoint as="offset" />
          </mxGeometry>
        </mxCell>
        <mxCell id="SQTo0PQy_0gCn9-5qwTW-12" value="" style="endArrow=classic;html=1;rounded=0;entryX=0;entryY=0.65;entryDx=0;entryDy=0;exitX=0.75;exitY=0;exitDx=0;exitDy=0;entryPerimeter=0;" edge="1" parent="1" source="SQTo0PQy_0gCn9-5qwTW-5">
          <mxGeometry width="50" height="50" relative="1" as="geometry">
            <mxPoint x="448" y="271" as="sourcePoint" />
            <mxPoint x="618" y="160" as="targetPoint" />
          </mxGeometry>
        </mxCell>
        <mxCell id="SQTo0PQy_0gCn9-5qwTW-13" value="message: text(&quot;hello&quot;)" style="edgeLabel;html=1;align=center;verticalAlign=middle;resizable=0;points=[];" vertex="1" connectable="0" parent="SQTo0PQy_0gCn9-5qwTW-12">
          <mxGeometry y="-1" relative="1" as="geometry">
            <mxPoint as="offset" />
          </mxGeometry>
        </mxCell>
        <mxCell id="SQTo0PQy_0gCn9-5qwTW-14" value="" style="endArrow=classic;html=1;rounded=0;exitX=0.5;exitY=1;exitDx=0;exitDy=0;" edge="1" parent="1" source="SQTo0PQy_0gCn9-5qwTW-3" target="SQTo0PQy_0gCn9-5qwTW-8">
          <mxGeometry width="50" height="50" relative="1" as="geometry">
            <mxPoint x="687" y="202.03999999999996" as="sourcePoint" />
            <mxPoint x="838" y="181" as="targetPoint" />
            <Array as="points">
              <mxPoint x="688" y="474" />
            </Array>
          </mxGeometry>
        </mxCell>
        <mxCell id="SQTo0PQy_0gCn9-5qwTW-15" value="message: text(&quot;hello&quot;)" style="edgeLabel;html=1;align=center;verticalAlign=middle;resizable=0;points=[];" vertex="1" connectable="0" parent="SQTo0PQy_0gCn9-5qwTW-14">
          <mxGeometry y="-1" relative="1" as="geometry">
            <mxPoint x="11" y="34" as="offset" />
          </mxGeometry>
        </mxCell>
        <mxCell id="SQTo0PQy_0gCn9-5qwTW-18" value="1" style="text;html=1;strokeColor=none;fillColor=none;align=center;verticalAlign=middle;whiteSpace=wrap;rounded=0;fontSize=16;" vertex="1" parent="1">
          <mxGeometry x="405" y="414" width="60" height="30" as="geometry" />
        </mxCell>
        <mxCell id="SQTo0PQy_0gCn9-5qwTW-19" value="2" style="text;html=1;strokeColor=none;fillColor=none;align=center;verticalAlign=middle;whiteSpace=wrap;rounded=0;fontSize=16;" vertex="1" parent="1">
          <mxGeometry x="514" y="201" width="60" height="30" as="geometry" />
        </mxCell>
        <mxCell id="SQTo0PQy_0gCn9-5qwTW-20" value="3" style="text;html=1;strokeColor=none;fillColor=none;align=center;verticalAlign=middle;whiteSpace=wrap;rounded=0;fontSize=16;" vertex="1" parent="1">
          <mxGeometry x="675" y="384" width="60" height="30" as="geometry" />
        </mxCell>
        <mxCell id="SQTo0PQy_0gCn9-5qwTW-21" value="NEW&lt;br&gt;client" style="shape=umlActor;verticalLabelPosition=bottom;verticalAlign=top;html=1;outlineConnect=0;" vertex="1" parent="1">
          <mxGeometry x="60" y="403" width="30" height="60" as="geometry" />
        </mxCell>
        <mxCell id="SQTo0PQy_0gCn9-5qwTW-24" value="" style="endArrow=classic;startArrow=classic;html=1;rounded=0;entryX=0.29;entryY=1.05;entryDx=0;entryDy=0;entryPerimeter=0;" edge="1" parent="1">
          <mxGeometry width="50" height="50" relative="1" as="geometry">
            <mxPoint x="80" y="400" as="sourcePoint" />
            <mxPoint x="80.90000000000009" y="185" as="targetPoint" />
          </mxGeometry>
        </mxCell>
        <mxCell id="SQTo0PQy_0gCn9-5qwTW-25" value="ClientHello&lt;br&gt;ServerHello" style="edgeLabel;html=1;align=center;verticalAlign=middle;resizable=0;points=[];" vertex="1" connectable="0" parent="SQTo0PQy_0gCn9-5qwTW-24">
          <mxGeometry x="0.0604" y="1" relative="1" as="geometry">
            <mxPoint as="offset" />
          </mxGeometry>
        </mxCell>
        <mxCell id="SQTo0PQy_0gCn9-5qwTW-26" value="already connected:&lt;br&gt;- client 1&lt;br&gt;- client 2" style="rounded=0;whiteSpace=wrap;html=1;align=left;" vertex="1" parent="1">
          <mxGeometry x="80" y="140" width="120" height="40" as="geometry" />
        </mxCell>
        <mxCell id="SQTo0PQy_0gCn9-5qwTW-28" value="&lt;div style=&quot;text-align: left;&quot;&gt;&lt;span style=&quot;background-color: initial;&quot;&gt;For simple design there is duplicite data: known client names are known in main thread and in special task.&lt;/span&gt;&lt;/div&gt;&lt;div style=&quot;text-align: left;&quot;&gt;&lt;br&gt;&lt;/div&gt;&lt;div style=&quot;text-align: left;&quot;&gt;&lt;span style=&quot;background-color: initial;&quot;&gt;Main thread needs to know that so that it allows to connect only users that are not yet connected.&lt;/span&gt;&lt;/div&gt;&lt;div style=&quot;text-align: left;&quot;&gt;&lt;br&gt;&lt;/div&gt;&lt;div style=&quot;text-align: left;&quot;&gt;&lt;span style=&quot;background-color: initial;&quot;&gt;The broadcasting task needs to know that for good broadcasting functionality.&lt;/span&gt;&lt;/div&gt;" style="text;html=1;strokeColor=none;fillColor=none;align=center;verticalAlign=middle;whiteSpace=wrap;rounded=0;" vertex="1" parent="1">
          <mxGeometry x="110" y="180" width="230" height="160" as="geometry" />
        </mxCell>
        <mxCell id="SQTo0PQy_0gCn9-5qwTW-29" value="" style="endArrow=classic;html=1;rounded=0;entryX=1;entryY=0.75;entryDx=0;entryDy=0;" edge="1" parent="1" target="SQTo0PQy_0gCn9-5qwTW-2">
          <mxGeometry width="50" height="50" relative="1" as="geometry">
            <mxPoint x="570" y="90" as="sourcePoint" />
            <mxPoint x="410" y="60" as="targetPoint" />
          </mxGeometry>
        </mxCell>
        <mxCell id="SQTo0PQy_0gCn9-5qwTW-30" value="&lt;i&gt;If client disconnected, the broadcasting&lt;br&gt;task notifies the main thread so that&lt;br&gt;it allows the client to connect again.&lt;/i&gt;" style="edgeLabel;html=1;align=center;verticalAlign=middle;resizable=0;points=[];" vertex="1" connectable="0" parent="SQTo0PQy_0gCn9-5qwTW-29">
          <mxGeometry x="-0.0004" relative="1" as="geometry">
            <mxPoint as="offset" />
          </mxGeometry>
        </mxCell>
        <mxCell id="SQTo0PQy_0gCn9-5qwTW-31" value="" style="endArrow=none;dashed=1;html=1;dashPattern=1 3;strokeWidth=2;rounded=0;entryX=0.291;entryY=1.013;entryDx=0;entryDy=0;entryPerimeter=0;" edge="1" parent="1" target="SQTo0PQy_0gCn9-5qwTW-4">
          <mxGeometry width="50" height="50" relative="1" as="geometry">
            <mxPoint x="610" y="310" as="sourcePoint" />
            <mxPoint x="631" y="210" as="targetPoint" />
          </mxGeometry>
        </mxCell>
        <mxCell id="SQTo0PQy_0gCn9-5qwTW-32" value="" style="endArrow=none;dashed=1;html=1;dashPattern=1 3;strokeWidth=2;rounded=0;entryX=0.5;entryY=1;entryDx=0;entryDy=0;exitX=0.5;exitY=0;exitDx=0;exitDy=0;exitPerimeter=0;" edge="1" parent="1" source="SQTo0PQy_0gCn9-5qwTW-8" target="SQTo0PQy_0gCn9-5qwTW-6">
          <mxGeometry width="50" height="50" relative="1" as="geometry">
            <mxPoint x="620" y="320" as="sourcePoint" />
            <mxPoint x="651" y="171" as="targetPoint" />
          </mxGeometry>
        </mxCell>
      </root>
    </mxGraphModel>
  </diagram>
</mxfile>
